<svg id="_x33_0" enable-background="new 0 0 64 64" height="512" viewBox="0 0 64 64" width="512" xmlns="http://www.w3.org/2000/svg"><g><g><g><path d="m54 58v4h-22c1.1 0 2.1-.45 2.83-1.17.72-.73 1.17-1.73 1.17-2.83 0-2.21-1.79-4-4-4h-2l-.2-.39c-.49-.99-1.5-1.61-2.6-1.61-.4 0-.8.09-1.16.24.12-1.43.56-2.78 1.28-3.99.71-1.21 1.69-2.26 2.89-3.06.49-.32 1-.6 1.54-.82.76-.33 1.55-.55 2.37-.67l2.88-.41v3.34c0 .93.38 1.77.99 2.38s1.45.99 2.38.99c1.55 0 2.89-1.05 3.27-2.55l.36-1.45.36 1.45c.38 1.5 1.72 2.55 3.27 2.55.93 0 1.77-.38 2.38-.99s.99-1.45.99-2.38v-3.34l2.88.41c.82.12 1.61.34 2.37.67.54.22 1.05.5 1.54.82 1.31.88 2.37 2.06 3.09 3.41s1.12 2.88 1.12 4.46v3.94c0 .55-.45 1-1 1h-1z" fill="#b4dd7f"/></g><g><path d="m51 43.29v3.34c0 .93-.38 1.77-.99 2.38s-1.45.99-2.38.99c-1.55 0-2.89-1.05-3.27-2.55l-.36-1.45c1.87 0 3.62-.94 4.66-2.5l.34-.5z" fill="#a0d468"/></g><g><path d="m39.34 43.5c.52.78 1.22 1.4 2.02 1.84.8.42 1.7.66 2.64.66l-.36 1.45c-.38 1.5-1.72 2.55-3.27 2.55-.93 0-1.77-.38-2.38-.99s-.99-1.45-.99-2.38v-3.34l2-.29z" fill="#a0d468"/></g><g><path d="m30.02 35.55c.1 3.01.68 5.98 1.73 8.81v.01c-.54.22-1.05.5-1.54.82-1.2.8-2.18 1.85-2.89 3.06-.72 1.21-1.16 2.56-1.28 3.99v.01c-.33.14-.63.34-.89.6l-1.15 1.15v8h-15c-3.87 0-7-3.13-7-7v-9.9c0-2.01.68-3.95 1.94-5.52 1.33-1.66 3.21-2.79 5.31-3.17l4.97-.9 2.78 6.49 5-4 5 4 2.78-6.49z" fill="#75b1f2"/></g><g><path d="m29.78 35.51-2.78 6.49-5-4 5-3z" fill="#5d9cec"/></g><g><path d="m22 38-5 4-2.78-6.49 2.78-.51z" fill="#5d9cec"/></g><g><path d="m40.68 19.01c-1.81.08-3.52.83-4.8 2.11-1.2 1.2-1.88 2.84-1.88 4.54v4.34c0 2.76 1.12 5.26 2.93 7.07.87.87 1.89 1.57 3.03 2.07v.01l-.96 3.85-2 .29-2.88.41c-.82.12-1.61.34-2.37.67v-.01c-1.05-2.83-1.63-5.8-1.73-8.81-.01-.31-.02-.63-.02-.94v-6.62-3.99c0-2.55.68-4.94 1.88-7 1.03-1.78 2.44-3.31 4.12-4.49 2.27-1.58 5.03-2.51 8-2.51 3.86 0 7.36 1.57 9.9 4.1 2.53 2.54 4.1 6.04 4.1 9.9v10.61c0 3.33-.59 6.63-1.75 9.75v.01c-.76-.33-1.55-.55-2.37-.67l-2.88-.41-2-.29-.96-3.85v-.01c3.51-1.55 5.96-5.06 5.96-9.14v-10c0 1.66-1.34 3-3 3h-4c-2.79 0-5.2-1.63-6.32-3.99z" fill="#656d78"/></g><g><path d="m36 12.51c-1.68 1.18-3.09 2.71-4.12 4.49h-.01c-.44-1.73-2.01-3-3.87-3h-8.51c-.97 0-1.84-.39-2.47-1.02-.4-.4-.7-.89-.87-1.45l-1.22.73c-1.82 1.08-2.93 3.04-2.93 5.15v.59h-1c-.8 0-1.53.32-2.06.82l-.67-2.02c-.18-.53-.27-1.09-.27-1.64 0-1.38.55-2.71 1.52-3.68l.48-.48-.87-3.47c-.09-.35-.13-.71-.13-1.08 0-1.23.5-2.34 1.3-3.15.81-.8 1.92-1.3 3.15-1.3h11.71c5.88 0 10.66 4.68 10.84 10.51z" fill="#b27946"/></g><g><path d="m18.85 23h6.3c1.13 0 2.17.64 2.68 1.66l1.86 3.73c-.94 1.13-2.13 2.05-3.48 2.68-1.27.59-2.7.93-4.21.93s-2.93-.33-4.21-.94c-1.07-.49-2.04-1.17-2.86-1.99-.22-.22-.42-.44-.62-.68l1.86-3.73c.51-1.02 1.55-1.66 2.68-1.66z" fill="#cf9e76"/></g><g><path d="m12.2 24h-1.2c-.83 0-1.58-.34-2.12-.88s-.88-1.29-.88-2.12c0-.86.36-1.63.94-2.18.53-.5 1.26-.82 2.06-.82h1v4c0 .69.07 1.36.2 2z" fill="#f0d0b4"/></g><g><path d="m30 24v3.99c-.1.14-.2.27-.31.4l-1.86-3.73c-.51-1.02-1.55-1.66-2.68-1.66h-6.3c-1.13 0-2.17.64-2.68 1.66l-1.86 3.73c-1.03-1.24-1.77-2.74-2.11-4.39-.13-.64-.2-1.31-.2-2v-4-.59c0-2.11 1.11-4.07 2.93-5.15l1.22-.73c.17.56.47 1.05.87 1.45.63.63 1.5 1.02 2.47 1.02h8.51c1.86 0 3.43 1.27 3.87 3h.01c-1.2 2.06-1.88 4.45-1.88 7z" fill="#f0d0b4"/></g><g><path d="m26.21 31.07.79 3.93-5 3-5-3 .78-3.92.01-.02c1.28.61 2.7.94 4.21.94s2.94-.34 4.21-.93z" fill="#f0d0b4"/></g><g><path d="m32 54c2.21 0 4 1.79 4 4 0 1.1-.45 2.1-1.17 2.83-.73.72-1.73 1.17-2.83 1.17h-8v-8l1.15-1.15c.26-.26.56-.46.89-.6v-.01c.36-.15.76-.24 1.16-.24 1.1 0 2.11.62 2.6 1.61l.2.39z" fill="#f0d0b4"/></g><g><path d="m54 58h6v4h-6z" fill="#f0d0b4"/></g><g><path d="m48.04 39.15.96 3.85-.34.5c-1.04 1.56-2.79 2.5-4.66 2.5-.94 0-1.84-.24-2.64-.66-.8-.44-1.5-1.06-2.02-1.84l-.34-.5.96-3.85v-.01c1.23.56 2.6.86 4.04.86s2.81-.3 4.04-.86z" fill="#f0d0b4"/></g><g><path d="m54 20v10c0 4.08-2.45 7.59-5.96 9.14-1.23.56-2.6.86-4.04.86s-2.81-.3-4.04-.86c-1.14-.5-2.16-1.2-3.03-2.07-1.81-1.81-2.93-4.31-2.93-7.07v-4.34c0-1.7.68-3.34 1.88-4.54 1.28-1.28 2.99-2.03 4.8-2.11 1.12 2.36 3.53 3.99 6.32 3.99h4c1.66 0 3-1.34 3-3z" fill="#f0d0b4"/></g><g><path d="m40 32h8c0 2.21-1.79 4-4 4-1.1 0-2.1-.45-2.83-1.17-.72-.73-1.17-1.73-1.17-2.83z" fill="#ff826e"/></g></g><g><path d="m40 28c.552 0 1 .448 1 1h2c0-1.654-1.346-3-3-3s-3 1.346-3 3h2c0-.552.448-1 1-1z"/><path d="m48 28c.552 0 1 .448 1 1h2c0-1.654-1.346-3-3-3s-3 1.346-3 3h2c0-.552.448-1 1-1z"/><path d="m39 32c0 2.757 2.243 5 5 5s5-2.243 5-5v-1h-10zm7.829 1c-.413 1.164-1.525 2-2.829 2s-2.416-.836-2.829-2z"/><path d="m58.341 44.358c-.276-.184-.566-.348-.86-.505 1.004-2.98 1.519-6.082 1.519-9.238v-10.615c0-8.271-6.729-15-15-15-2.6 0-5.046.666-7.18 1.835-.946-5.629-5.776-9.835-11.658-9.835h-11.71c-3.006 0-5.452 2.446-5.452 5.452 0 .444.055.889.163 1.321l.729 2.92-.075.075c-1.171 1.172-1.817 2.73-1.817 4.387 0 .669.107 1.329.318 1.962l.496 1.489c-.504.67-.814 1.493-.814 2.394 0 2.206 1.794 4 4 4h.426c.805 2.832 2.711 5.201 5.232 6.608l-.506 2.53-7.079 1.287c-2.334.425-4.437 1.679-5.918 3.531-1.389 1.736-2.155 3.917-2.155 6.142v9.902c0 4.411 3.589 8 8 8h52v-4c1.103 0 2-.897 2-2v-3.936c0-3.506-1.742-6.761-4.659-8.706zm-1.341-20.358v10.615c0 2.892-.484 5.731-1.39 8.465-.523-.161-1.053-.297-1.593-.374l-4.21-.601-.604-2.417c3.448-1.859 5.797-5.504 5.797-9.688v-10c0-2.206-1.794-4-4-4s-4 1.794-4 4h2c0-1.103.897-2 2-2s2 .897 2 2-.897 2-2 2h-4c-3.309 0-6-2.691-6-6h-2c0 .757.113 1.487.31 2.181-1.559.326-2.996 1.091-4.138 2.233-1.4 1.4-2.172 3.263-2.172 5.243v4.343c0 4.184 2.349 7.829 5.797 9.688l-.604 2.417-4.21.601c-.54.078-1.07.213-1.593.374-.906-2.734-1.39-5.572-1.39-8.465v-10.615c0-7.168 5.832-13 13-13s13 5.832 13 13zm-10 0h4c.732 0 1.409-.212 2-.556v6.556c0 4.963-4.037 9-9 9s-9-4.037-9-9v-4.343c0-1.446.563-2.807 1.586-3.829.965-.964 2.211-1.553 3.549-1.741 1.398 2.339 3.948 3.913 6.865 3.913zm-3 17c1.164 0 2.285-.185 3.339-.522l.583 2.335-.091.136c-.855 1.284-2.288 2.051-3.831 2.051s-2.976-.767-3.832-2.051l-.091-.136.583-2.335c1.055.337 2.176.522 3.34.522zm-6 3.153.519-.074c.993 1.477 2.521 2.461 4.233 2.79l-.084.337c-.265 1.056-1.21 1.794-2.299 1.794-1.306 0-2.369-1.062-2.369-2.369zm11.481-.074.519.074v2.478c0 1.307-1.062 2.369-2.369 2.369-1.089 0-2.034-.738-2.299-1.795l-.084-.336c1.711-.329 3.239-1.313 4.233-2.79zm-20.481-13.59v3.858l-1.152-.209-.506-2.529c.581-.325 1.14-.691 1.658-1.12zm-1.808 5.562 1.178.214-1.771 4.133-2.851-2.281zm-16.192-13.051c-1.103 0-2-.897-2-2s.897-2 2-2v3c0 .338.021.67.051 1zm.027-6h-.027c-.536 0-1.045.11-1.513.301l-.272-.817c-.143-.428-.215-.876-.215-1.329 0-1.123.438-2.179 1.231-2.973l.876-.876-1.004-4.018c-.068-.273-.103-.555-.103-.836 0-1.903 1.549-3.452 3.452-3.452h11.71c5.193 0 9.4 3.944 9.795 9.06-1.117.848-2.109 1.847-2.951 2.969-.922-1.242-2.385-2.029-4.006-2.029h-8.513c-1.371 0-2.487-1.116-2.487-2.487 0-1.072.684-2.02 1.699-2.358l.616-.205-.631-1.898-.617.206c-1.835.61-3.067 2.32-3.067 4.255 0 .173.032.338.051.506l-.633.377c-1.99 1.185-3.253 3.306-3.391 5.604zm1.973.41c0-1.753.936-3.399 2.441-4.296l.285-.17c.801 1.234 2.184 2.056 3.761 2.056h8.513c1.248 0 2.343.772 2.787 1.91-1.138 2.112-1.787 4.526-1.787 7.09v.764l-.276-.553c-.682-1.363-2.053-2.211-3.578-2.211h-6.291c-1.525 0-2.896.848-3.578 2.211l-1.106 2.211c-.742-1.307-1.171-2.814-1.171-4.422zm2.509 10.808 1.557-3.112c.34-.682 1.026-1.106 1.788-1.106h6.291c.763 0 1.448.424 1.789 1.105l1.562 3.123c-1.691 1.773-4.003 2.772-6.496 2.772-2.551 0-4.852-1.071-6.491-2.782zm6.491 4.782c1.202 0 2.366-.203 3.467-.566l.414 2.071-3.881 2.329-3.881-2.329.415-2.074c1.091.364 2.254.569 3.466.569zm-5.192 3.051 3.444 2.066-2.851 2.281-1.771-4.133zm-13.808 18.949v-9.902c0-1.771.609-3.509 1.717-4.892 1.181-1.477 2.854-2.476 4.714-2.813l4.181-.76 2.987 6.969 5.401-4.321 5.401 4.32 1.947-4.544c.252 1.626.642 3.227 1.17 4.795-.293.157-.583.321-.86.505-2.505 1.67-4.128 4.294-4.542 7.253-.241.153-.47.327-.676.533l-.854.857h-12.586v-7.236l-1.105-2.211-1.789.895.894 1.788v6.764h-2v2h16v6h-14c-3.309 0-6-2.691-6-6zm22 6v-6.586l.855-.855c.36-.36.839-.559 1.349-.559.727 0 1.38.404 1.705 1.053l.472.947h2.619c1.654 0 3 1.346 3 3s-1.346 3-3 3zm34 0h-4v-2h4zm2-4h-6v-2h-2v6h-17.026c.635-.838 1.026-1.87 1.026-3 0-2.757-2.243-5-5-5h-1.386c-.681-1.22-1.945-1.974-3.348-1.996.506-2.027 1.731-3.8 3.502-4.982 1.045-.696 2.255-1.158 3.498-1.336l1.734-.247v2.192c0 2.409 1.96 4.369 4.369 4.369 1.494 0 2.839-.754 3.631-1.941.793 1.187 2.137 1.941 3.631 1.941 2.409 0 4.369-1.96 4.369-4.369v-2.192l1.733.248c1.243.178 2.453.64 3.498 1.336 2.36 1.573 3.769 4.205 3.769 7.041z"/><path d="m43 57h2v2h-2z"/><path d="m43 53h2v2h-2z"/><path d="m18 19c.552 0 1 .448 1 1h2c0-1.654-1.346-3-3-3s-3 1.346-3 3h2c0-.552.448-1 1-1z"/><path d="m26 19c.552 0 1 .448 1 1h2c0-1.654-1.346-3-3-3s-3 1.346-3 3h2c0-.552.448-1 1-1z"/><path d="m25.789 26.658.105-.211-1.789-.895-.105.212c-.381.762-1.147 1.236-2 1.236s-1.619-.474-2-1.236l-.105-.211-1.789.895.105.211c.722 1.444 2.174 2.341 3.789 2.341s3.067-.897 3.789-2.342z"/></g></g></svg>