<?xml version="1.0" encoding="iso-8859-1"?>
<!-- Generator: Adobe Illustrator 16.0.0, SVG Export Plug-In . SVG Version: 6.00 Build 0)  -->
<!DOCTYPE svg PUBLIC "-//W3C//DTD SVG 1.1//EN" "http://www.w3.org/Graphics/SVG/1.1/DTD/svg11.dtd">
<svg version="1.1" id="Capa_1" xmlns="http://www.w3.org/2000/svg" xmlns:xlink="http://www.w3.org/1999/xlink" x="0px" y="0px"
	 width="310.387px" height="310.387px" viewBox="0 0 310.387 310.387" style="enable-background:new 0 0 310.387 310.387;"
	 xml:space="preserve">
<g>
	<g>
		<path d="M243.933,240.154c-1.223,6.12-3.059,11.628-5.508,17.137c22.033-2.448,45.289-6.12,67.32-4.896c0-4.896,0-9.18,0-14.076
			C286.161,243.827,264.13,242.603,243.933,240.154z"/>
		<path d="M305.134,220.57c0,0-0.611,0.612-1.225,0.612c-17.748,6.12-39.779,4.284-58.141,1.224c0,4.284,0,9.181-0.611,13.465
			c20.809,0.611,40.393-3.673,60.588-4.896C305.134,227.915,305.134,224.243,305.134,220.57z"/>
		<path d="M241.485,199.763c0.611,1.836,1.225,3.672,1.836,6.12c20.809,0,41.004-2.448,61.812-3.061c0-1.836,0-3.672,0-6.119
			C286.161,202.211,258.622,205.271,241.485,199.763z"/>
		<path d="M238.425,261.575c-0.611,0-1.223,0-1.836-0.612c-3.672,6.731-7.955,12.852-13.463,18.359
			c26.928-2.447,53.855-4.896,80.783-5.508c0.613-4.284,1.225-9.18,1.225-14.076C283.714,262.799,259.845,261.575,238.425,261.575z"
			/>
		<path d="M303.298,215.675c0.611,0,1.225,0,1.836,0.612c0-2.448,0-4.284,0-6.12c-19.584,3.06-41.004,1.836-60.588,0.611
			c0.611,2.448,1.223,5.509,1.223,7.956C265.353,219.347,283.714,215.675,303.298,215.675z"/>
		<path d="M203.542,294.623c33.047-3.672,66.707-6.732,99.756-7.956l0,0c0-1.225,0.611-3.061,0.611-4.284
			c-28.764,1.836-57.527,1.836-86.291,2.448C213.333,288.503,208.438,291.562,203.542,294.623z"/>
		<path d="M261.681,161.818c13.465-3.672,27.541-5.508,41.617-5.508c-1.225-5.508-3.672-11.016-7.344-15.3
			c-0.613-1.224-0.613-1.836-0.613-2.448c-0.611,0.612-1.836,1.224-3.059,1.224c-11.018,0.612-22.033,1.224-33.66,1.224
			c0,0,0.611,0.612,0.611,1.224C259.233,148.966,259.845,155.698,261.681,161.818z"/>
		<path d="M191.913,300.131c-8.568,3.672-17.135,6.12-26.928,6.731c-3.061,0-5.508,0.612-8.568,0.612
			c-14.688,0-28.151-3.672-39.779-9.792c-34.272,1.224-68.544-1.224-102.816-3.672c-1.224,0-1.224-1.836,0-2.448
			c30.6-1.224,61.812-2.448,92.412-0.611c-3.06-2.448-6.12-4.896-8.568-7.956c-30.6,1.224-61.812-1.225-92.412-2.448
			c0,1.836,0.612,4.284,0.612,6.12c6.12,31.212,47.124,22.644,71.604,22.644c23.868,0,48.348-0.612,72.216-0.612
			c1.836,0,4.284,0,6.12,0c23.867,0,47.736,0,72.217,0c11.627,0,24.479,1.225,36.107,0c4.283,0,7.955,0,12.24,0
			c11.627-2.447,18.971-6.731,23.256-12.852C264.741,299.519,228.022,301.354,191.913,300.131z"/>
		<path d="M235.366,216.898c-4.285,0.612-8.568,0.612-12.854,0.612c0,0,0,0-0.611,0c0,5.508-0.611,10.404-1.836,15.912
			c4.896,0,11.016,0.612,14.076,3.672C235.978,230.362,235.978,223.631,235.366,216.898z"/>
		<path d="M233.53,241.379L233.53,241.379c-2.449,0-4.285-1.225-6.732-1.836c-2.449-0.612-4.896-1.225-7.344-0.612h-0.613
			c-1.836,4.284-3.672,8.568-6.119,12.24c1.836,1.224,3.672,2.448,6.119,3.06c2.449,1.225,6.121,2.448,7.957,4.284
			C229.858,253.007,232.306,247.499,233.53,241.379z"/>
		<path d="M222.513,210.778c3.672,0,7.957,0,11.629,0.612c-1.225-4.896-2.447-9.18-4.896-13.464
			c-3.061,2.448-6.732,3.672-11.016,3.672c1.225,3.061,2.447,6.12,2.447,9.792C221.901,210.778,221.901,210.778,222.513,210.778z"/>
		<path d="M209.661,186.911c2.449,2.447,4.285,5.508,6.121,8.567l0,0c4.283,0,7.344-1.224,11.016-2.448
			c-3.061-4.283-6.121-8.567-9.793-12.239C215.169,183.851,212.722,185.687,209.661,186.911z"/>
		<path d="M210.886,276.875c4.283-3.672,8.568-7.956,11.627-12.853c-3.059-0.611-5.508-2.447-7.955-4.284
			c-1.836-1.224-4.283-2.447-6.119-3.672c-2.449,3.061-4.896,5.509-7.346,7.345c0.613,0,1.225,0.611,1.225,1.224
			c0.611,3.06,1.836,5.508,3.672,7.344S209.661,275.039,210.886,276.875z"/>
		<path d="M192.526,176.507c4.283,1.224,7.955,3.672,11.627,6.12c3.061-1.225,6.121-3.061,8.568-4.896
			c-4.283-3.06-9.18-6.12-14.688-7.956C196.198,171.61,194.362,174.059,192.526,176.507z"/>
		<path d="M184.569,263.411c24.48-11.629,39.779-49.572,17.137-70.381c-14.689-13.464-36.109-14.688-54.468-9.792
			c-20.808,11.017-32.436,36.108-22.644,58.753C134.386,264.022,162.538,274.427,184.569,263.411z"/>
		<path d="M10.149,191.194c28.152,0,57.528-0.611,85.068,4.284c15.912-25.092,44.676-43.452,74.051-37.944
			c29.988-7.344,59.365,11.629,70.992,39.169l0.613-0.612c10.404-3.672,22.031-3.061,32.436-4.284s21.42-3.672,31.824-4.284
			c0-7.344,0-14.688-0.611-22.031c-15.301,0.611-29.377,2.447-44.678,4.283c-1.836,0-4.283-0.611-4.895-2.447
			c-1.225-8.568-1.836-17.137,0-25.705c0,0,0,0,0-0.612c-33.66,1.224-66.709,1.836-100.369,2.448
			c1.224-1.224,2.449-3.672,2.449-6.12v-19.584c0-1.836-0.613-3.672-1.225-4.896c19.584,0,38.557-3.06,45.9-15.912
			c5.508-8.568,1.223-37.944,1.223-48.348c0.613-15.912,4.896-33.66-11.627-42.228c-12.852-6.12-33.049-5.508-47.125-6.12
			c-7.956,0-52.02-2.448-52.632,7.956c0,2.448-2.448,3.672-4.284,3.672l0,0c0.612,0,1.836,0.612,1.836,1.224
			c0.612,15.3,0,31.212-0.612,46.512c0,7.344-1.836,15.912-1.224,23.256c1.836,18.36,6.732,23.256,25.704,25.092
			c6.732,0.612,17.136,1.836,27.54,2.448c-1.224,1.224-1.836,3.06-1.836,4.896v19.584c0,2.448,0.612,4.284,2.448,6.12
			c-28.152,0-55.692,0-83.232-1.224h-0.612c-14.688,1.224-29.988,3.06-44.676,5.508c-1.224,0-1.836,0-3.06-0.612
			C10.762,162.431,10.762,177.119,10.149,191.194z M138.058,101.842c-11.628,0-25.704,3.06-36.72,0
			c-1.224-0.612-2.448-1.224-3.06-3.06c-2.448-11.016,0-24.48,0.612-36.108c0.612-12.852,0.612-26.316,3.672-38.556
			c0.612-1.224,2.448-1.224,3.06,0c1.836,10.404,1.224,21.42,1.224,32.436c0,9.18-3.672,28.764,2.448,34.884
			c6.732,6.12,26.928,1.836,35.496,1.224c9.18,0,28.153,2.448,35.497-1.224c4.283,1.224,5.508-1.224,3.672-7.344
			c0-3.06,0-6.732-0.613-9.792c0-5.508-0.611-11.016-0.611-16.524c0-7.344,2.447-29.376-2.447-34.272c-3.061-3.06-28.153,0-33.049,0
			c-13.464,0-26.316,0-39.78-0.612c-5.508-0.612-5.508-7.956,0-8.568c15.3-1.224,30.6-1.224,45.9-1.224
			c8.567,0,23.257-3.06,31.212,1.224c3.672,1.836,4.896,4.284,5.508,8.568c3.061,12.852,1.225,28.152,1.225,41.004
			c0.611,12.852,7.344,33.048-9.18,36.72C169.269,103.678,152.133,101.842,138.058,101.842z M129.49,38.806
			c5.508,1.224,10.404,3.672,14.688,7.344c2.448-4.896,6.12-9.792,9.792-13.464c6.732-6.12,17.137,0,14.688,8.568
			c-2.447,9.18-6.732,17.748-13.464,24.48l0,0c-2.448,6.732-10.404,8.568-15.3,4.284c-9.18-3.06-17.136-9.792-21.42-18.36
			C115.414,44.926,121.534,37.582,129.49,38.806z"/>
		<path d="M170.493,290.339c0,1.836,0.613,3.672,1.225,5.508c6.732-1.224,13.463-3.672,19.584-6.12
			c6.119-2.448,11.627-6.12,16.523-10.404c-4.896-3.06-7.344-9.18-8.568-14.075l0,0c-3.059,2.447-6.73,4.896-10.404,6.119
			c-0.611,0-1.223,0.612-1.223,0.612c0.611,2.448,1.223,5.508,2.447,7.956s3.061,4.896,3.061,7.956c0,0.612-0.611,1.224-1.225,1.836
			c-0.611,0-0.611,0-1.223,0c-3.674-1.224-4.285-4.896-5.51-7.956c-1.223-2.448-1.836-4.896-1.836-7.956
			c-4.283,1.225-8.566,1.836-12.852,1.836c-6.732,0-13.463-0.611-20.196-3.06c0,7.956-1.224,15.912-2.448,23.868
			c6.732,0.611,13.464,0.611,20.196,0c0-1.836,0-3.672,0-5.508c0-4.896,0.611-9.792,1.223-14.688c0-0.612,0.613-0.612,1.225-0.612
			c0.613,0,1.225,0.612,1.225,1.225C170.493,281.771,170.493,286.055,170.493,290.339z"/>
		<path d="M186.405,174.671c1.225-3.061,3.061-5.508,4.896-7.344c-4.896-1.225-9.793-2.448-14.688-2.448
			c0,1.836,0.611,3.06,0.611,4.896s-0.611,3.061-1.225,3.672C179.673,173.446,183.345,174.059,186.405,174.671z"/>
		<path d="M171.718,172.835c0-0.612-0.611-0.612-0.611-1.225c-0.613-2.447-1.225-4.896-1.838-7.344c-2.447,0-4.895,0-7.955,0
			c-1.225,0-1.836-0.612-1.836-1.224c-3.061,0.611-6.12,1.224-9.18,1.836c1.836,3.06,3.672,6.12,5.508,9.792
			C160.702,173.446,165.597,172.835,171.718,172.835z"/>
		<path d="M146.625,166.103c-3.672,1.225-7.344,3.061-11.016,4.896c2.448,2.447,4.896,5.508,6.732,7.956
			c3.06-1.225,6.12-1.836,9.18-3.061c-1.224-3.06-3.06-6.12-4.284-9.18C146.625,166.715,146.625,166.103,146.625,166.103z"/>
		<path d="M128.266,292.175c0.612,0,1.224,0.612,1.836,1.224c3.672,1.225,7.956,2.448,12.24,3.061c0-8.568,0-17.137,2.448-25.093
			c-4.896-1.836-9.18-4.896-12.852-7.955v0.611c-3.06,7.956-8.568,15.912-14.076,23.256
			C120.921,289.727,123.981,290.951,128.266,292.175C127.653,292.175,127.653,292.175,128.266,292.175z"/>
		<path d="M116.638,183.238C116.638,183.238,117.25,183.238,116.638,183.238c3.06,4.284,6.12,6.12,9.792,8.568
			c1.836-1.836,3.672-4.284,6.12-6.12c-0.612-1.224-0.612-2.448,0.612-3.06c1.224-0.612,3.06-1.225,4.896-2.448
			c-2.448-2.448-4.284-5.508-6.732-7.956C126.43,175.282,120.921,178.955,116.638,183.238z"/>
		<path d="M114.802,285.442c3.672-7.956,8.568-15.912,14.076-22.644c0.612-0.612,0.612-0.612,1.224-0.612
			c-4.284-3.672-7.344-7.344-10.404-12.24c-6.12,6.12-14.076,11.629-20.808,17.137h-0.612
			C102.562,274.427,107.458,280.547,114.802,285.442z"/>
		<path d="M100.726,201.599c5.508,1.224,11.016,3.061,15.912,5.508c1.836-4.284,4.284-8.567,6.732-12.239
			c-4.284-1.225-7.956-4.896-9.792-9.181C108.682,190.583,104.397,196.091,100.726,201.599z"/>
		<path d="M97.054,264.635c6.732-6.12,13.464-13.464,20.808-18.972c0-0.612-0.612-1.225-1.224-1.836
			c-1.224-3.673-2.448-6.732-3.06-10.404l-0.612,0.612c-6.732,1.836-15.3,0.611-22.032,0.611
			C90.322,246.274,92.77,256.066,97.054,264.635z"/>
		<path d="M90.934,230.362c6.732,0,15.3-1.224,22.032,0.612c0,0,0,0,0.612,0c-0.612-6.12,0-12.852,1.224-18.36
			c-5.508-2.447-10.404-4.896-16.524-6.731C94.605,213.227,92.158,221.795,90.934,230.362z"/>
		<path d="M92.77,199.763c-26.928,1.836-55.692-1.224-82.62-3.672c0,4.284-0.612,8.568-0.612,12.852
			c25.704,1.225,52.02,1.836,77.724,3.672C88.485,207.719,90.322,203.435,92.77,199.763z"/>
		<path d="M94.605,278.099c-3.672-4.896-6.732-10.404-8.568-15.912c-1.836-4.284-2.448-8.567-3.672-13.464
			c0,0.612-0.612,1.224-1.224,1.224c-23.868,1.836-48.96-1.224-72.828-0.611c-1.224,0-1.836-1.225-1.836-1.836
			c0-0.612,0.612-1.836,1.836-1.836c23.256-1.225,50.184-4.284,73.44,1.224c0,0,0.612,0,0.612,0.612
			c-0.612-2.448-0.612-5.509-0.612-8.568c0,0-0.612,0-0.612,0.612c-24.48,2.447-49.572,1.224-74.052,0
			c-0.612,3.06-0.612,5.508-0.612,8.567c-0.612,4.896-0.612,9.181-1.224,13.464c25.092-1.836,53.244-4.283,77.724,0.612
			c0.612,0,1.224,0.612,1.224,1.225c0.612,1.224-0.612,2.447-1.836,2.447c-25.704,1.836-52.02-1.224-77.724-1.836
			c0,4.896,0,9.18,0,13.464C35.242,276.875,65.229,275.65,94.605,278.099z"/>
		<path d="M81.753,235.871c0,0,0.612,0,0.612,0.611c0-1.836,0-3.672,0-5.508c0-3.06,0.612-5.508,1.224-8.568
			c0.612-1.836,0.612-3.672,1.224-5.508c-25.092-1.224-50.796-3.06-75.888-4.896c0,1.836,0,3.672,0,5.508
			c0,2.448,0,4.284-0.612,6.732c23.868-3.673,49.572-7.956,73.44-4.896c1.224,0,1.224,1.224,1.224,1.836s-0.612,1.224-1.224,1.224
			c-23.868,2.448-48.96,1.225-72.828,3.061c0,3.06-0.612,6.12-0.612,9.18C32.182,234.646,57.273,233.423,81.753,235.871z"/>
		<path d="M56.662,136.114c0-3.06,1.224-9.18,0-10.404c-1.224-1.224-6.12-0.612-8.568-0.612c-6.732,0-13.464,0-20.196,0.612
			c0.612,3.672,0.612,7.956,1.224,11.628C38.302,136.726,47.481,136.114,56.662,136.114z"/>
	</g>
</g>
<g>
</g>
<g>
</g>
<g>
</g>
<g>
</g>
<g>
</g>
<g>
</g>
<g>
</g>
<g>
</g>
<g>
</g>
<g>
</g>
<g>
</g>
<g>
</g>
<g>
</g>
<g>
</g>
<g>
</g>
</svg>
