<svg height="512" viewBox="0 0 128 128" width="512" xmlns="http://www.w3.org/2000/svg"><g><path d="m60 16.083h2.25v2.25a1.75 1.75 0 0 0 3.5 0v-2.25h2.25a1.75 1.75 0 1 0 0-3.5h-2.25v-2.25a1.75 1.75 0 1 0 -3.5 0v2.25h-2.25a1.75 1.75 0 0 0 0 3.5z"/><path d="m113.428 50a5.75 5.75 0 1 0 5.75 5.75 5.756 5.756 0 0 0 -5.75-5.75zm0 8a2.25 2.25 0 1 1 2.25-2.25 2.253 2.253 0 0 1 -2.25 2.25z"/><path d="m45.678 34.779a5.75 5.75 0 1 0 -5.75-5.75 5.756 5.756 0 0 0 5.75 5.75zm0-8a2.25 2.25 0 1 1 -2.25 2.25 2.253 2.253 0 0 1 2.25-2.25z"/><path d="m123.25 11.41a1.752 1.752 0 0 0 -.513-1.221l-4.926-4.926a1.754 1.754 0 0 0 -2.453-.026l-11.45 10.991c-.017.016-.029.036-.046.054l-98.574 94.666a1.748 1.748 0 0 0 -.025 2.5l9.29 9.29a1.75 1.75 0 0 0 1.237.513h.018a1.746 1.746 0 0 0 1.244-.538l94.666-98.574c.018-.017.038-.029.054-.046l10.991-11.45a1.748 1.748 0 0 0 .487-1.233zm-12.77 8.965-2.855-2.855 8.922-8.568 2.5 2.5zm-94.715 98.625-6.765-6.765 96.1-92.29 2.955 2.955z"/><path d="m36.2 65.75h2.25v2.25a1.75 1.75 0 0 0 3.5 0v-2.25h2.25a1.75 1.75 0 1 0 0-3.5h-2.25v-2.25a1.75 1.75 0 0 0 -3.5 0v2.25h-2.25a1.75 1.75 0 0 0 0 3.5z"/><path d="m103.707 74.23h-2.25v-2.25a1.75 1.75 0 0 0 -3.5 0v2.25h-2.25a1.75 1.75 0 0 0 0 3.5h2.25v2.25a1.75 1.75 0 1 0 3.5 0v-2.25h2.25a1.75 1.75 0 0 0 0-3.5z"/></g></svg>