<?xml version="1.0" encoding="iso-8859-1"?>
<!-- Generator: Adobe Illustrator 19.0.0, SVG Export Plug-In . SVG Version: 6.00 Build 0)  -->
<svg version="1.1" id="Capa_1" xmlns="http://www.w3.org/2000/svg" xmlns:xlink="http://www.w3.org/1999/xlink" x="0px" y="0px"
	 viewBox="0 0 512 512" style="enable-background:new 0 0 512 512;" xml:space="preserve">
<path style="opacity:0.3;fill:#FFCF5D;enable-background:new    ;" d="M256,172.527c-47.566,0-86.264-38.698-86.264-86.264
	S208.434,0,256,0s86.264,38.698,86.264,86.264S303.566,172.527,256,172.527z"/>
<rect x="248.389" y="118.739" style="fill:#47403D;" width="15.223" height="40.595"/>
<path style="fill:#FF983B;" d="M259.674,48.148c-2.412-0.6-4.935-0.6-7.348,0c-11.985,2.98-20.683,19.008-20.683,38.115
	c0,24.821,14.103,41.58,28.031,38.115c11.985-2.98,20.683-19.008,20.683-38.115S271.658,51.128,259.674,48.148z"/>
<path style="fill:#FFCF5D;" d="M256,62.599c-2.643,0.66-9.226,8.644-9.226,23.665s6.583,23.005,9.226,23.665
	c2.643-0.66,9.226-8.644,9.226-23.665S258.643,63.259,256,62.599z"/>
<path style="fill:#FF7C8B;" d="M256.937,152.761c-13.139-0.543-23.771,9.927-23.771,23.354v8.921c0,10.305,0,18.434,0,18.434v45.669
	h45.669c0,0,0-66.878,0-73.024C278.835,163.167,269.084,153.257,256.937,152.761z"/>
<path style="fill:#FF5368;" d="M267.861,156.088C260.792,159.969,256,167.481,256,176.115v73.024h22.834c0,0,0-66.878,0-73.024
	C278.835,168.1,274.927,160.419,267.861,156.088z"/>
<path style="fill:#FFF9EB;" d="M225.554,229.353h-10.149h-91.338c-11.21,0-20.297,9.088-20.297,20.297v223.787h213.122
	l30.446-244.084L225.554,229.353L225.554,229.353z"/>
<path style="fill:#E9E3D5;" d="M387.933,229.353h-71.041v244.084h91.338V249.65C408.23,238.441,399.143,229.353,387.933,229.353z"/>
<path style="fill:#6C7A88;" d="M426.065,512H85.935c-8.074,0-15.819-3.208-21.528-8.918l-31.677-31.677h446.541l-31.677,31.677
	C441.884,508.792,434.139,512,426.065,512z"/>
<path style="fill:#8B9BA9;" d="M492.971,486.629H19.029c-8.407,0-15.223-6.816-15.223-15.223l0,0
	c0-8.407,6.816-15.223,15.223-15.223h473.943c8.407,0,15.223,6.816,15.223,15.223l0,0
	C508.194,479.814,501.378,486.629,492.971,486.629z"/>
<circle style="fill:#5C87BD;" cx="240.777" cy="371.441" r="45.669"/>
<path style="fill:#456EA2;" d="M263.271,375.457c-0.539,3.178-1.788,6.215-3.625,8.864c-5.489,7.915-14.596,11.105-23,9.57
	c-9.843-1.796-19.923,1.604-26.998,8.679l-1.163,1.163c8.78,8.781,21.118,14.002,34.667,13.316
	c23.202-1.174,42.057-20.026,43.234-43.228c0.688-13.55-4.534-25.892-13.316-34.673l-1.15,1.15
	c-7.227,7.227-10.146,17.496-8.58,27.596C263.719,370.342,263.707,372.887,263.271,375.457z"/>
<path style="fill:#60F375;" d="M104.777,330.339c-0.304,0-0.607,0.009-0.908,0.019l-0.278,0.009
	c-4.133,0.098-7.432,3.476-7.432,7.609v91.286c0,4.134,3.299,7.511,7.432,7.609l0.278,0.009c0.301,0.01,0.604,0.019,0.908,0.019
	c29.378,0,53.28-23.902,53.28-53.28C158.057,354.242,134.155,330.339,104.777,330.339z"/>
<path style="fill:#28D05B;" d="M158.057,383.619c0-7.96-1.767-15.51-4.909-22.3c-10.251,2.247-17.926,11.375-17.926,22.3
	c0,16.788-13.658,30.446-30.446,30.446c-3.051,0-5.958,0.603-8.618,1.688v13.51c0,4.134,3.299,7.511,7.432,7.609l0.278,0.009
	c0.301,0.01,0.604,0.019,0.908,0.019C134.155,436.9,158.057,412.998,158.057,383.619z"/>
<path style="fill:#00D3D8;" d="M408.23,348.607c-18.187,0-32.983,14.796-32.983,32.983s14.796,32.983,32.983,32.983
	c4.205,0,7.611-3.407,7.611-7.611v-50.743C415.841,352.013,412.435,348.607,408.23,348.607z"/>
<circle style="fill:#FF7C8B;" cx="316.892" cy="300.4" r="30.446"/>
<path style="fill:#FF5368;" d="M322.274,305.783c-0.945,0.945-2.077,1.588-3.279,1.932c-8.971,2.565-17.034,7.617-23.632,14.214l0,0
	c6.046,6.045,14.62,9.56,24.002,8.819c14.758-1.164,26.714-13.122,27.876-27.88c0.739-9.379-2.776-17.953-8.82-23.998l0,0
	c-6.597,6.597-11.656,14.655-14.213,23.627C323.864,303.703,323.22,304.837,322.274,305.783z"/>
<circle style="fill:#FFCF5D;" cx="235.703" cy="280.103" r="15.223"/>
<circle style="fill:#FF5368;" cx="332.115" cy="417.11" r="15.223"/>
<path style="fill:#28D05B;" d="M387.933,221.741H369.38c-3.226,0-6.101,2.034-7.176,5.074c-1.443,4.084-2.176,8.352-2.176,12.689
	c0,20.985,17.073,38.058,38.059,38.058c4.333,0,8.599-0.731,12.679-2.172c3.042-1.076,5.076-3.952,5.076-7.177V249.65
	C415.841,234.262,403.321,221.741,387.933,221.741z"/>
<path style="fill:#87F8F4;" d="M184.959,221.741h-60.892c-15.388,0-27.909,12.52-27.909,27.909v60.899
	c0,4.205,3.407,7.611,7.611,7.611c48.965,0,88.801-39.836,88.801-88.801v-0.007C192.571,225.149,189.164,221.741,184.959,221.741z"
	/>
<path style="fill:#00F4F5;" d="M184.959,221.741h-15.223c0,0,0,4.946,0,7.619c0,17.842-7.12,34.052-18.668,45.939
	c-11.995,12.346-28.766,20.027-47.298,20.027c-2.67,0-7.611,0-7.611,0v15.223c0,4.205,3.407,7.611,7.611,7.611
	c48.965,0,88.801-39.836,88.801-88.801C192.571,225.135,189.152,221.741,184.959,221.741z"/>
<g>
</g>
<g>
</g>
<g>
</g>
<g>
</g>
<g>
</g>
<g>
</g>
<g>
</g>
<g>
</g>
<g>
</g>
<g>
</g>
<g>
</g>
<g>
</g>
<g>
</g>
<g>
</g>
<g>
</g>
</svg>
