<svg height="512pt" viewBox="-21 0 512 512.00018" width="512pt" xmlns="http://www.w3.org/2000/svg"><path d="m301.960938 403.566406c0 8.28125-6.714844 14.996094-14.996094 14.996094s-14.996094-6.714844-14.996094-14.996094 6.714844-14.992187 14.996094-14.992187 14.996094 6.710937 14.996094 14.992187zm0 0" fill="#42a5f5"/><path d="m463.46875 215.445312c0 8.28125-6.714844 14.996094-14.996094 14.996094s-14.996094-6.714844-14.996094-14.996094 6.714844-14.996093 14.996094-14.996093 14.996094 6.714843 14.996094 14.996093zm0 0" fill="#42a5f5"/><path d="m36.050781 116.089844c0 8.28125-6.714843 14.996094-14.996093 14.996094s-14.996094-6.714844-14.996094-14.996094 6.714844-14.992188 14.996094-14.992188 14.996093 6.710938 14.996093 14.992188zm0 0" fill="#42a5f5"/><path d="m330.242188 139.550781c0 8.28125-6.710938 14.996094-14.992188 14.996094s-14.996094-6.714844-14.996094-14.996094 6.714844-14.992187 14.996094-14.992187 14.992188 6.710937 14.992188 14.992187zm0 0" fill="#42a5f5"/><path d="m171.828125 225.148438c0 8.28125-6.714844 14.992187-14.996094 14.992187s-14.992187-6.710937-14.992187-14.992187 6.710937-14.996094 14.992187-14.996094 14.996094 6.714844 14.996094 14.996094zm0 0" fill="#42a5f5"/><path d="m145.03125 399.96875-8.628906-8.628906c-2.476563-2.480469-2.476563-6.496094 0-8.972656l20.789062-20.789063c2.480469-2.480469 6.496094-2.480469 8.972656 0l8.628907 8.628906c2.480469 2.476563 2.480469 6.492188 0 8.972657l-20.789063 20.789062c-2.476562 2.476562-6.496094 2.476562-8.972656 0zm0 0" fill="#ffa000"/><path d="m10.488281 311.964844-8.628906-8.628906c-2.480469-2.480469-2.480469-6.496094 0-8.972657l20.789063-20.789062c2.476562-2.480469 6.496093-2.480469 8.972656 0l8.628906 8.628906c2.476562 2.476563 2.476562 6.492187 0 8.972656l-20.789062 20.789063c-2.480469 2.476562-6.496094 2.476562-8.972657 0zm0 0" fill="#ffa000"/><path d="m158.292969 105.523438 8.628906-8.628907c2.476563-2.476562 6.496094-2.476562 8.972656 0l20.789063 20.789063c2.476562 2.480468 2.476562 6.496094 0 8.972656l-8.628906 8.628906c-2.476563 2.480469-6.492188 2.480469-8.972657 0l-20.789062-20.789062c-2.476563-2.476563-2.476563-6.492188 0-8.972656zm0 0" fill="#ffa000"/><path d="m302.886719 282.203125 8.628906-8.628906c2.480469-2.480469 6.496094-2.480469 8.972656 0l20.789063 20.789062c2.480468 2.476563 2.480468 6.492188 0 8.972657l-8.628906 8.628906c-2.476563 2.476562-6.492188 2.476562-8.972657 0l-20.789062-20.789063c-2.476563-2.480469-2.476563-6.496093 0-8.972656zm0 0" fill="#ffa000"/><path d="m437.90625 399.222656-8.628906-8.628906c-2.476563-2.480469-2.476563-6.496094 0-8.972656l20.789062-20.789063c2.480469-2.480469 6.496094-2.480469 8.972656 0l8.628907 8.628907c2.480469 2.476562 2.480469 6.492187 0 8.96875l-20.789063 20.792968c-2.476562 2.476563-6.496094 2.476563-8.972656 0zm0 0" fill="#ffa000"/><path d="m391.472656 68.519531-8.628906-8.628906c-2.476562-2.476563-2.476562-6.492187 0-8.972656l20.789062-20.789063c2.480469-2.476562 6.496094-2.476562 8.972657 0l8.628906 8.628906c2.480469 2.476563 2.480469 6.496094 0 8.972657l-20.789063 20.789062c-2.476562 2.476563-6.496093 2.476563-8.972656 0zm0 0" fill="#ffa000"/><g fill="#ef5350"><path d="m120.769531 310.808594-63.171875-43.726563c-7.546875-5.226562-12.203125-14.972656-12.203125-25.53125v-65.890625c0 10.558594 4.65625 20.304688 12.203125 25.53125l63.171875 43.730469c7.546875 5.222656 12.207031 14.96875 12.207031 25.527344v65.890625c0-10.558594-4.660156-20.304688-12.207031-25.53125zm0 0"/><path d="m425.320312 310.808594-63.171874-43.730469c-7.546876-5.222656-12.207032-14.96875-12.207032-25.527344v-65.890625c0 10.558594 4.660156 20.304688 12.207032 25.527344l63.171874 43.734375c7.542969 5.222656 12.203126 14.96875 12.203126 25.527344v65.890625c0-10.558594-4.660157-20.304688-12.203126-25.53125zm0 0"/><path d="m206.101562 211.191406 63.171876-43.730468c7.546874-5.226563 12.207031-14.972657 12.207031-25.53125v-65.890626c0 10.558594-4.660157 20.304688-12.207031 25.53125l-63.171876 43.730469c-7.546874 5.222657-12.203124 14.96875-12.203124 25.527344v65.890625c0-10.558594 4.65625-20.304688 12.203124-25.527344zm0 0"/><path d="m120.769531 45.679688-64.125-44.394532c-4.757812-3.289062-11.25.113282-11.25 5.898438v35.125c0 10.558594 4.65625 20.304687 12.203125 25.53125l63.171875 43.730468c7.546875 5.222657 12.207031 14.96875 12.207031 25.527344v-65.890625c0-10.558593-4.660156-20.304687-12.207031-25.527343zm0 0"/><path d="m120.769531 444.160156-63.171875-43.730468c-7.542968-5.222657-12.203125-14.96875-12.203125-25.527344v65.890625c0 10.558593 4.660157 20.304687 12.203125 25.527343l64.128906 44.394532c4.753907 3.289062 11.25-.113282 11.25-5.898438v-35.125c0-10.558594-4.660156-20.304687-12.207031-25.53125zm0 0"/><path d="m425.320312 444.160156-63.171874-43.730468c-7.546876-5.222657-12.207032-14.96875-12.207032-25.527344v65.890625c0 10.558593 4.660156 20.304687 12.207032 25.527343l64.125 44.394532c4.757812 3.289062 11.25-.113282 11.25-5.898438v-35.125c0-10.558594-4.660157-20.304687-12.203126-25.53125zm0 0"/><path d="m269.273438 300.808594-63.171876 43.734375c-7.546874 5.222656-12.203124 14.96875-12.203124 25.527343v35.125c0 5.785157 6.496093 9.191407 11.25 5.898438l64.125-44.394531c7.546874-5.222657 12.207031-14.96875 12.207031-25.527344v-65.890625c0 10.558594-4.660157 20.304688-12.207031 25.527344zm0 0"/></g><path d="m362.148438 145.300781c-7.546876 5.222657-12.207032 14.96875-12.207032 25.527344v4.832031c0 10.5625 4.660156 20.308594 12.207032 25.53125l7.222656 5 55.949218-38.730468c7.542969-5.226563 12.203126-14.972657 12.203126-25.53125v-35.125c0-5.785157-6.496094-9.1875-11.25-5.894532zm0 0" fill="#ffca28"/><path d="m425.320312 310.808594-7.226562-5-55.945312 38.734375c-7.546876 5.222656-12.207032 14.96875-12.207032 25.527343v4.832032c0 10.558594 4.660156 20.304687 12.207032 25.53125l7.222656 5 55.949218-38.734375c7.542969-5.222657 12.203126-14.96875 12.203126-25.527344v-4.832031c0-10.558594-4.660157-20.304688-12.203126-25.53125zm0 0" fill="#ffca28"/><path d="m269.273438 45.679688-64.125-44.394532c-4.757813-3.289062-11.25.113282-11.25 5.898438v35.125c0 10.558594 4.65625 20.304687 12.203124 25.53125l55.949219 38.730468 7.222657-5c7.546874-5.226562 12.207031-14.972656 12.207031-25.53125v-4.832031c0-10.558593-4.660157-20.304687-12.207031-25.527343zm0 0" fill="#ffca28"/><path d="m269.273438 244.921875-55.949219-38.734375-7.222657 5c-7.546874 5.226562-12.207031 14.972656-12.207031 25.53125v4.832031c0 10.558594 4.660157 20.304688 12.207031 25.53125l55.949219 38.730469 7.222657-5c7.546874-5.226562 12.207031-14.972656 12.207031-25.53125v-4.832031c0-10.558594-4.660157-20.304688-12.207031-25.527344zm0 0" fill="#ffca28"/><path d="m120.769531 111.570312-7.222656-5-55.949219 38.730469c-7.546875 5.222657-12.203125 14.96875-12.203125 25.527344v4.832031c0 10.5625 4.65625 20.308594 12.203125 25.53125l7.222656 5 55.949219-38.730468c7.546875-5.226563 12.207031-14.972657 12.207031-25.53125v-4.832032c0-10.558594-4.660156-20.304687-12.207031-25.527344zm0 0" fill="#ffca28"/><path d="m120.769531 310.808594-7.222656-5-55.949219 38.734375c-7.546875 5.222656-12.207031 14.96875-12.207031 25.527343v4.832032c0 10.558594 4.660156 20.304687 12.207031 25.53125l7.222656 5 55.949219-38.734375c7.546875-5.222657 12.207031-14.96875 12.207031-25.527344v-4.832031c0-10.558594-4.660156-20.304688-12.207031-25.53125zm0 0" fill="#ffca28"/></svg>