<svg id="Layer_3" enable-background="new 0 0 64 64" height="512" viewBox="0 0 64 64" width="512" xmlns="http://www.w3.org/2000/svg"><g><path d="m45.999 24.999c0-.879-4.587-2.911-13.464-2.992l5.96 5.587c5.635-.741 7.504-2.171 7.504-2.595z"/><path d="m33.206 25.377-2.868-2.689c-.177-.165-.45-.163-.623.01-.173.172-.175.455-.006.63l2.728 2.818z"/><path d="m21.424 20.257 1.52-.44c.092-.026.186-.04.278-.04.356 0 .695.192.875.517l.809 1.465.938-2.098c.096-.214.264-.387.474-.49l2.249-1.098-1.485-.615c-.248-.103-.444-.301-.545-.549s-.097-.527.01-.773l.459-1.056-1.933.939c-.269.133-.58.135-.854.01l-2.46-1.126.986 2.702c.112.305.068.646-.117.913z"/><path d="m47.882 32.999c-.901.257-1.86.492-2.866.707l1.711 1.604z"/><path d="m31.437 18.898-2.416 1.179c.974-.051 1.968-.078 2.977-.078 7.706 0 16 1.565 16 5 0 2.495-4.152 3.736-7.644 4.338l2.864 2.685c7.662-1.417 12.779-4.214 12.779-7.023 0-3.784-9.856-8-24-8-.257 0-.514.009-.771.012l.154.064c.363.151.605.5.617.894.013.393-.206.756-.56.929z"/><path d="m26.874 22.257-.963 2.15c-.154.346-.492.575-.871.591-.014 0-.027.001-.042.001-.362 0-.698-.197-.875-.517l-.937-1.698c-4.237.848-5.188 1.971-5.188 2.215 0 .879 4.58 2.908 13.442 2.992l-3.168-3.272c-.666-.688-.838-1.68-.534-2.532-.288.023-.58.042-.864.07z"/><path d="m34.667 26.747-.838.837 19.761 20.409 1.81-1.81z"/><path d="m56.86 47.553-1.878 1.878 3.528 3.643 2.052-2.052z"/><path d="m45 42.316c0-.105.006-.209.008-.313l-2.067-2.135c-3.279.732-7.037 1.13-10.942 1.13-4.896 0-9.63-.63-13.336-1.745.21 1.008.335 2.033.335 3.062 0 .572-.045 1.143-.11 1.713l3.397 1.012c.415.124.703.5.714.934.011.433-.259.824-.667.968l-3.29 1.161.927 3.65c.1.394-.049.809-.376 1.051-.176.129-.384.195-.594.195-.18 0-.36-.049-.521-.147l-2.483-1.516c-.003.003-.005.007-.007.01l-2.962 3.948c.518 2.757 8.163 5.704 18.973 5.704 10.809 0 18.454-2.946 18.972-5.704l-2.962-3.949c-1.941-2.586-3.009-5.793-3.009-9.029z"/><path d="m36.153 32.858-2.789-2.88c-.452.011-.904.021-1.366.021-7.706 0-16-1.564-16-5 0-1.113.842-1.975 2.074-2.643-.117-.304-.087-.65.105-.926l2.363-3.409c-7.542 1.432-12.542 4.186-12.542 6.979 0 3.784 9.857 8 24 8 1.401 0 2.785-.058 4.155-.142z"/><path d="m16.133 33.032 1.277 2.553c.217.434.399.883.573 1.336 3.65 1.319 8.716 2.077 14.016 2.077 3.286 0 6.448-.297 9.291-.835l-3.32-3.429c-1.947.17-3.949.266-5.972.266-6.074 0-11.533-.723-15.865-1.968z"/><path d="m12.415 49.869 1.883-1.24c.322-.212.74-.221 1.071-.018l2.058 1.256-.548-2.157c-.127-.501.148-1.017.637-1.189l1.251-.441-2.204-.657c-.289-.086-.523-.297-.639-.576l-.993-2.4-1.182 2.452c-.119.248-.336.436-.599.519l-2.112.668 1.166.443c.452.172.716.643.627 1.119z"/><path d="m6.415 11.869 1.883-1.24c.323-.213.74-.22 1.071-.018l2.058 1.256-.548-2.157c-.127-.501.148-1.017.637-1.189l1.251-.441-2.204-.657c-.289-.086-.523-.297-.639-.576l-.993-2.4-1.182 2.451c-.119.248-.336.436-.599.519l-2.112.669 1.166.443c.452.173.716.643.627 1.119z"/><path d="m52.831 9.648-.416 2.221 1.883-1.24c.323-.213.74-.22 1.071-.018l2.058 1.256-.548-2.157c-.127-.501.148-1.017.637-1.189l1.251-.441-2.204-.657c-.289-.086-.523-.297-.639-.576l-.993-2.4-1.182 2.452c-.119.248-.336.436-.599.519l-2.112.668 1.166.443c.452.173.716.643.627 1.119z"/></g></svg>