<svg height="512pt" viewBox="0 -54 512.00058 512" width="512pt" xmlns="http://www.w3.org/2000/svg"><path d="m293.414062 116.753906v94.925782c0 2.828124-2.953124 4.691406-5.507812 3.46875l-30.199219-14.441407c-1.050781-.5-2.269531-.5-3.320312 0l-30.199219 14.441407c-2.554688 1.222656-5.507812-.640626-5.507812-3.46875v-94.925782c24.582031 2.773438 49.523437 2.816406 74.734374 0zm0 0" fill="#ffca28"/><path d="m206.472656 115.15625-24.558594 91.683594c-.734374 2.734375-4.066406 3.765625-6.21875 1.925781l-25.421874-21.765625c-.886719-.757812-2.0625-1.074219-3.207032-.859375l-32.914062 6.136719c-2.785156.519531-5.15625-2.042969-4.421875-4.777344l24.550781-91.621094c23.394531 9.171875 47.628906 15.609375 72.191406 19.277344zm0 0" fill="#42a5f5"/><path d="m397.941406 192.277344-32.914062-6.136719c-1.144532-.214844-2.320313.101563-3.207032.859375l-25.421874 21.765625c-2.152344 1.839844-5.488282.808594-6.21875-1.925781l-24.5625-91.691406c24.5625-3.667969 48.792968-10.085938 72.199218-19.269532l24.550782 91.625c.730468 2.730469-1.640626 5.292969-4.425782 4.773438zm0 0" fill="#66bb6a"/><path d="m498.304688 141.703125-33.375 2.59375c-1.160157.089844-2.214844.699219-2.871094 1.660156l-18.933594 27.605469c-1.601562 2.335938-5.089844 2.199219-6.503906-.25l-47.425782-82.144531c22.585938-9.84375 44.308594-22.300781 64.695313-37.402344l47.449219 82.179687c1.414062 2.449219-.210938 5.539063-3.035156 5.757813zm0 0" fill="#ec407a"/><path d="m13.785156 141.703125 33.375 2.59375c1.160156.089844 2.214844.699219 2.875 1.660156l18.933594 27.605469c1.601562 2.335938 5.085938 2.199219 6.503906-.25l47.421875-82.144531c-22.585937-9.84375-44.304687-22.300781-64.691406-37.402344l-47.449219 82.179687c-1.417968 2.449219.210938 5.539063 3.03125 5.757813zm0 0" fill="#ef5350"/><path d="m210.332031 301.917969 40.921875 97.960937c1.777344 4.253906 7.804688 4.253906 9.582032 0l40.921874-97.960937c-30.335937 3.957031-61.085937 3.957031-91.425781 0zm0 0" fill="#ec407a"/><path d="m121.765625 278.21875 14.171875 105.21875c.617188 4.570312 6.4375 6.128906 9.253906 2.480469l64.886719-84.035157c-30.332031-4.027343-60.035156-11.984374-88.3125-23.664062zm0 0" fill="#66bb6a"/><path d="m42.347656 232.40625-13.542968 105.300781c-.585938 4.570313 4.632812 7.585938 8.296874 4.789063l84.421876-64.375c-28.25-11.738282-54.882813-27.113282-79.175782-45.714844zm0 0" fill="#ec407a"/><path d="m390.328125 278.21875-14.175781 105.21875c-.613282 4.570312-6.4375 6.128906-9.253906 2.480469l-64.882813-84.035157c30.332031-4.027343 60.03125-11.984374 88.3125-23.664062zm0 0" fill="#42a5f5"/><path d="m469.746094 232.40625 13.539062 105.300781c.589844 4.570313-4.628906 7.585938-8.296875 4.789063l-84.421875-64.375c28.253906-11.738282 54.886719-27.113282 79.179688-45.714844zm0 0" fill="#66bb6a"/><path d="m363.003906 186.332031 23.8125-56.851562-9.003906-33.601563h-.003906c-2.507813.984375-5.027344 1.929688-7.554688 2.851563-.113281.039062-.222656.082031-.332031.121093-2.5625.929688-5.136719 1.828126-7.71875 2.691407-.003906.003906-.003906.003906-.007813.003906l-36.757812 87.585937 4.742188 17.703126c.734374 2.734374 4.066406 3.769531 6.21875 1.929687l25.421874-21.769531c.351563-.296875.761719-.507813 1.183594-.664063zm0 0" fill="#ffca28"/><path d="m125.355469 129.183594c4.253906 1.761718 8.917969 2.738281 13.808593 2.738281 15.523438 0 28.757813-9.792969 33.871094-23.535156-13.109375-3.363281-26.054687-7.527344-38.753906-12.507813zm0 0" fill="#ec407a"/><path d="m150.269531 187 25.425781 21.765625c2.152344 1.839844 5.484376.808594 6.21875-1.925781l10.695313-39.933594c-5.140625-2.8125-11.039063-4.417969-17.316406-4.417969-15.988281 0-29.542969 10.390625-34.300781 24.785157l6.070312-1.132813c1.144531-.214844 2.324219.101563 3.207031.859375zm0 0" fill="#ec407a"/><path d="m475.183594 90.640625-21.292969-36.875c-10.121094 7.496094-20.570313 14.339844-31.285156 20.535156l20.21875 35.023438zm0 0" fill="#42a5f5"/><path d="m463.296875 144.804688-20.472656-35.480469-32.359375 18.683593 26.15625 45.304688c1.414062 2.449219 4.902344 2.585938 6.503906.25l18.929688-27.605469c.328124-.480469.753906-.867187 1.242187-1.152343zm0 0" fill="#42a5f5"/><path d="m58.203125 53.765625-18.015625 31.199219 64.714844 37.367187 17.992187-31.164062c-22.585937-9.84375-44.304687-22.300781-64.691406-37.402344zm0 0" fill="#66bb6a"/><path d="m36.835938 275.261719c4.027343.871093 8.203124 1.34375 12.492187 1.34375 14.820313 0 28.347656-5.492188 38.6875-14.535157-15.945313-8.695312-31.222656-18.601562-45.667969-29.660156zm0 0" fill="#42a5f5"/><path d="m59.027344 297.8125c-9.28125 0-18.054688 2.152344-25.859375 5.980469l-4.363281 33.914062c-.585938 4.574219 4.632812 7.585938 8.296874 4.792969l49.5625-37.792969c-8.242187-4.398437-17.648437-6.894531-27.636718-6.894531zm0 0" fill="#42a5f5"/><path d="m121.765625 278.21875 4.179687 31.023438 48.648438 38.59375 35.480469-45.953126c-30.328125-4.027343-60.03125-11.984374-88.308594-23.664062zm0 0" fill="#ffca28"/><path d="m431.640625 257.835938c-9.03125 5.214843-18.300781 10.023437-27.769531 14.417968-4.394532 2.042969-8.824219 4.007813-13.304688 5.867188l84.421875 64.378906c1.832031 1.394531 4.054688 1.339844 5.742188.367188zm0 0" fill="#ef5350"/><path d="m234.875 360.664062h42.34375l12.523438-29.980468h-67.390626zm0 0" fill="#42a5f5"/><path d="m256.046875 126.339844c-.023437 0-.046875 0-.070313 0-47.367187-.007813-93.285156-9.589844-136.476562-28.476563-44.914062-19.640625-84.476562-48.363281-117.589844-85.371093-2.761718-3.085938-2.496094-7.820313.585938-10.582032 3.085937-2.761718 7.824218-2.496094 10.585937.585938 61.882813 69.160156 150.417969 108.835937 242.898438 108.855468h.066406c92.464844 0 180.976563-39.636718 242.875-108.753906 2.761719-3.085937 7.5-3.34375 10.582031-.585937 3.085938 2.761719 3.347656 7.5.585938 10.585937-33.128906 36.992188-72.699219 65.699219-117.617188 85.320313-43.179687 18.859375-89.082031 28.421875-136.425781 28.421875zm0 0" fill="#bdbdbd"/><path d="m256.046875 312.40625c-46.585937 0-92-8.835938-134.980469-26.265625-44.5-18.046875-84.425781-44.558594-118.664062-78.796875-2.929688-2.929688-2.929688-7.675781 0-10.601562 2.925781-2.925782 7.671875-2.925782 10.597656 0 64.921875 64.921874 151.234375 100.675781 243.046875 100.675781 91.808594 0 178.125-35.753907 243.042969-100.675781 2.929687-2.925782 7.675781-2.925782 10.601562 0 2.925782 2.929687 2.925782 7.675781 0 10.601562-34.242187 34.238281-74.164062 60.75-118.667968 78.796875-42.976563 17.429687-88.390626 26.265625-134.976563 26.265625zm0 0" fill="#bdbdbd"/><path d="m359.6875 310.167969c0 4.140625-3.355469 7.496093-7.496094 7.496093s-7.496094-3.355468-7.496094-7.496093 3.355469-7.496094 7.496094-7.496094 7.496094 3.355469 7.496094 7.496094zm0 0" fill="#ffca28"/><path d="m342.101562 314.878906c0 4.140625-3.355468 7.496094-7.496093 7.496094s-7.496094-3.355469-7.496094-7.496094 3.355469-7.496094 7.496094-7.496094 7.496093 3.355469 7.496093 7.496094zm0 0" fill="#ffca28"/><path d="m377.265625 305.449219c0 4.140625-3.355469 7.5-7.496094 7.5s-7.496093-3.359375-7.496093-7.5c0-4.136719 3.355468-7.496094 7.496093-7.496094s7.496094 3.359375 7.496094 7.496094zm0 0" fill="#ffca28"/><path d="m373.289062 326.179688c0 4.140624-3.355468 7.496093-7.496093 7.496093s-7.496094-3.355469-7.496094-7.496093c0-4.140626 3.355469-7.496094 7.496094-7.496094s7.496093 3.355468 7.496093 7.496094zm0 0" fill="#ffca28"/><path d="m355.710938 330.890625c0 4.140625-3.359376 7.5-7.496094 7.5-4.140625 0-7.5-3.359375-7.5-7.5 0-4.136719 3.359375-7.496094 7.5-7.496094 4.136718 0 7.496094 3.359375 7.496094 7.496094zm0 0" fill="#ffca28"/><path d="m369.304688 346.90625c0 4.136719-3.355469 7.496094-7.496094 7.496094s-7.496094-3.359375-7.496094-7.496094c0-4.140625 3.355469-7.5 7.496094-7.5s7.496094 3.359375 7.496094 7.5zm0 0" fill="#ffca28"/><g fill="#ef5350"><path d="m263.542969 139.515625c0 4.140625-3.355469 7.496094-7.496094 7.496094s-7.496094-3.355469-7.496094-7.496094 3.355469-7.496094 7.496094-7.496094 7.496094 3.355469 7.496094 7.496094zm0 0"/><path d="m243.339844 139.515625c0 4.140625-3.355469 7.496094-7.496094 7.496094s-7.496094-3.355469-7.496094-7.496094 3.355469-7.496094 7.496094-7.496094 7.496094 3.355469 7.496094 7.496094zm0 0"/><path d="m283.746094 139.515625c0 4.140625-3.359375 7.496094-7.5 7.496094-4.136719 0-7.496094-3.355469-7.496094-7.496094s3.359375-7.496094 7.496094-7.496094c4.140625 0 7.5 3.355469 7.5 7.496094zm0 0"/><path d="m263.542969 181.488281c0 4.140625-3.355469 7.496094-7.496094 7.496094s-7.496094-3.355469-7.496094-7.496094 3.355469-7.496093 7.496094-7.496093 7.496094 3.355468 7.496094 7.496093zm0 0"/><path d="m243.339844 181.488281c0 4.140625-3.355469 7.496094-7.496094 7.496094s-7.496094-3.355469-7.496094-7.496094 3.355469-7.496093 7.496094-7.496093 7.496094 3.355468 7.496094 7.496093zm0 0"/><path d="m283.746094 181.488281c0 4.140625-3.359375 7.496094-7.5 7.496094-4.136719 0-7.496094-3.355469-7.496094-7.496094s3.359375-7.496093 7.496094-7.496093c4.140625 0 7.5 3.355468 7.5 7.496093zm0 0"/><path d="m273.75 160.503906c0 4.136719-3.355469 7.496094-7.496094 7.496094s-7.496094-3.359375-7.496094-7.496094c0-4.140625 3.355469-7.5 7.496094-7.5s7.496094 3.359375 7.496094 7.5zm0 0"/><path d="m252.550781 160.503906c0 4.136719-3.359375 7.496094-7.496093 7.496094-4.140626 0-7.496094-3.359375-7.496094-7.496094 0-4.140625 3.355468-7.5 7.496094-7.5 4.136718 0 7.496093 3.359375 7.496093 7.5zm0 0"/></g></svg>