<?xml version="1.0" encoding="iso-8859-1"?>
<!-- Generator: Adobe Illustrator 19.0.0, SVG Export Plug-In . SVG Version: 6.00 Build 0)  -->
<svg version="1.1" id="Capa_1" xmlns="http://www.w3.org/2000/svg" xmlns:xlink="http://www.w3.org/1999/xlink" x="0px" y="0px"
	 viewBox="0 0 512.004 512.004" style="enable-background:new 0 0 512.004 512.004;" xml:space="preserve">
<path style="fill:#FFE269;" d="M123.072,178.203l-49.703,21.433c-5.829,2.514-12.222-2.132-11.633-8.452l5.025-53.894
	c0.214-2.291-0.526-4.568-2.046-6.296L28.971,90.347c-4.192-4.767-1.75-12.283,4.443-13.676l52.809-11.875
	c2.245-0.505,4.182-1.912,5.356-3.891l27.613-46.554c3.238-5.46,11.141-5.46,14.379,0l27.613,46.554
	c1.174,1.979,3.111,3.386,5.356,3.891l52.809,11.875c6.193,1.393,8.635,8.909,4.443,13.676l-35.743,40.648
	c-1.519,1.728-2.259,4.005-2.046,6.296l5.025,53.894c0.589,6.321-5.804,10.966-11.633,8.452l-49.703-21.433
	C127.579,177.292,125.185,177.292,123.072,178.203z"/>
<path style="fill:#FFF4CA;" d="M123.072,142.374l-17.356,7.484c-5.829,2.514-12.222-2.132-11.633-8.452l1.755-18.819
	c0.214-2.291-0.526-4.568-2.046-6.296l-12.481-14.194c-4.192-4.767-1.75-12.283,4.443-13.676l18.44-4.147
	c2.245-0.505,4.182-1.912,5.356-3.891l9.642-16.256c3.238-5.46,11.141-5.46,14.379,0l9.642,16.256
	c1.174,1.979,3.111,3.386,5.356,3.891l18.44,4.147c6.193,1.393,8.635,8.909,4.443,13.676l-12.481,14.194
	c-1.519,1.728-2.259,4.005-2.046,6.296l1.755,18.819c0.589,6.321-5.804,10.966-11.633,8.452l-17.356-7.484
	C127.579,141.463,125.184,141.463,123.072,142.374z"/>
<path style="fill:#FFE269;" d="M167.413,446.33l-57.076,53.169c-4.645,4.327-12.228,2.101-13.797-4.049l-19.29-75.581
	c-0.569-2.229-2.032-4.125-4.043-5.242L5.002,376.773c-5.55-3.08-5.777-10.98-0.412-14.374l65.921-41.702
	c1.944-1.23,3.296-3.207,3.736-5.465l14.924-76.563c1.214-6.231,8.657-8.887,13.543-4.834l60.031,49.808
	c1.771,1.469,4.068,2.143,6.352,1.864l77.428-9.466c6.301-0.77,11.128,5.487,8.782,11.386l-28.82,72.485
	c-0.85,2.138-0.781,4.532,0.19,6.617l32.929,70.713c2.68,5.755-1.78,12.279-8.115,11.871l-77.843-5.01
	C171.352,443.957,169.096,444.762,167.413,446.33z"/>
<path style="fill:#FFF4CA;" d="M152.946,405.8l-26.117,24.329c-4.645,4.327-12.228,2.101-13.797-4.049l-8.827-34.585
	c-0.569-2.229-2.032-4.125-4.043-5.242l-31.209-17.321c-5.55-3.08-5.777-10.98-0.412-14.374l30.164-19.082
	c1.944-1.23,3.296-3.207,3.736-5.465l6.829-35.034c1.215-6.231,8.657-8.887,13.543-4.834l27.469,22.791
	c1.771,1.469,4.068,2.143,6.352,1.864l35.429-4.331c6.301-0.77,11.128,5.487,8.782,11.386l-13.187,33.168
	c-0.85,2.138-0.781,4.532,0.19,6.617l15.068,32.357c2.68,5.755-1.78,12.279-8.115,11.871l-35.619-2.293
	C156.885,403.427,154.63,404.232,152.946,405.8z"/>
<path style="fill:#FFE269;" d="M358.476,294.88l-42.448,2.436c-6.337,0.364-10.752-6.191-8.032-11.927l18.216-38.418
	c0.986-2.079,1.071-4.472,0.236-6.616l-15.434-39.618c-2.304-5.915,2.566-12.139,8.861-11.325l42.167,5.453
	c2.282,0.295,4.584-0.363,6.365-1.82l32.91-26.921c4.913-4.019,12.337-1.311,13.509,4.928l7.844,41.788
	c0.424,2.261,1.762,4.248,3.698,5.491l35.773,22.98c5.341,3.431,5.059,11.329-0.512,14.37l-37.319,20.373
	c-2.019,1.102-3.495,2.988-4.08,5.214l-10.801,41.123c-1.613,6.14-9.211,8.312-13.825,3.953l-30.908-29.197
	C363.023,295.568,360.773,294.748,358.476,294.88z"/>
<path style="fill:#FFF4CA;" d="M369.857,263.683l-9.852,0.565c-6.338,0.364-10.752-6.191-8.032-11.927l4.228-8.917
	c0.986-2.079,1.071-4.472,0.236-6.616l-3.582-9.195c-2.304-5.915,2.566-12.139,8.861-11.325l9.787,1.266
	c2.282,0.295,4.584-0.363,6.365-1.82l7.638-6.248c4.913-4.019,12.337-1.311,13.509,4.928l1.821,9.699
	c0.424,2.261,1.762,4.248,3.698,5.491l8.303,5.334c5.341,3.431,5.059,11.329-0.512,14.37l-8.662,4.729
	c-2.019,1.102-3.495,2.988-4.08,5.214l-2.507,9.545c-1.613,6.14-9.211,8.312-13.825,3.953l-7.174-6.776
	C374.404,264.372,372.154,263.551,369.857,263.683z"/>
<circle style="fill:#63CEC1;" cx="492.34" cy="345.861" r="19.664"/>
<g>
	<circle style="fill:#A6AEF2;" cx="19.664" cy="178.351" r="19.664"/>
	<circle style="fill:#A6AEF2;" cx="317.88" cy="365.521" r="19.664"/>
</g>
<g>
	<circle style="fill:#FC819C;" cx="337.55" cy="454.381" r="19.664"/>
	<circle style="fill:#FC819C;" cx="298.22" cy="129.081" r="19.664"/>
</g>
<circle style="fill:#FFB64D;" cx="253.32" cy="213.181" r="19.664"/>
<g>
</g>
<g>
</g>
<g>
</g>
<g>
</g>
<g>
</g>
<g>
</g>
<g>
</g>
<g>
</g>
<g>
</g>
<g>
</g>
<g>
</g>
<g>
</g>
<g>
</g>
<g>
</g>
<g>
</g>
</svg>
