<?xml version="1.0"?>
<svg xmlns="http://www.w3.org/2000/svg" width="512" height="512" viewBox="0 0 512 512"><g><path d="M464,480H424V288h24a8,8,0,0,0,7.16-11.58l-32-64A8.011,8.011,0,0,0,416,208H288V189.29a7.86,7.86,0,0,1,3.87-6.85,72,72,0,1,0-71.74,0,7.86,7.86,0,0,1,3.87,6.85V208H96a8.011,8.011,0,0,0-7.16,4.42l-32,64A8,8,0,0,0,64,288H88V480H16a8,8,0,0,0,0,16H464a8,8,0,0,0,0-16ZM200,120a56,56,0,0,1,58.67-55.94,56.166,56.166,0,0,1,53.31,54.34c.01.52.02,1.04.02,1.56a55.994,55.994,0,0,1-28.11,48.61A23.918,23.918,0,0,0,272,189.29V208H240V189.29a23.906,23.906,0,0,0-11.9-20.72A56.183,56.183,0,0,1,200,120ZM76.94,272l24-48H307.06l-24,48ZM312,480H104V288H288a8.011,8.011,0,0,0,7.16-4.42L312,249.89Zm96,0H328V249.89l16.84,33.69A8.011,8.011,0,0,0,352,288h56ZM356.94,272l-24-48h78.12l24,48Z"/><path d="M496,480h-8a8,8,0,0,0,0,16h8a8,8,0,0,0,0-16Z"/><path d="M160,456H120a8,8,0,0,0,0,16h40a8,8,0,0,0,0-16Z"/><path d="M192,456h-8a8,8,0,0,0,0,16h8a8,8,0,0,0,0-16Z"/><path d="M240,112a8,8,0,0,0-16,0v32a8,8,0,0,0,16,0Z"/><path d="M280,152a8,8,0,0,0,8-8V112a8,8,0,0,0-16,0v32A8,8,0,0,0,280,152Z"/><path d="M152,128h16a8,8,0,0,0,0-16H152a8,8,0,0,0,0,16Z"/><path d="M344,128h16a8,8,0,0,0,0-16H344a8,8,0,0,0,0,16Z"/><path d="M176.8,199.2a8,8,0,0,0,11.314,0l11.314-11.313a8,8,0,0,0-11.315-11.315L176.8,187.882A8,8,0,0,0,176.8,199.2Z"/><path d="M318.226,65.774a7.981,7.981,0,0,0,5.657-2.342L335.2,52.118A8,8,0,0,0,323.882,40.8L312.568,52.117a8,8,0,0,0,5.658,13.657Z"/><path d="M188.117,63.432a8,8,0,1,0,11.315-11.315L188.118,40.8A8,8,0,0,0,176.8,52.118Z"/><path d="M323.883,176.568a8,8,0,0,0-11.315,11.315L323.882,199.2A8,8,0,0,0,335.2,187.882Z"/><path d="M256,40a8,8,0,0,0,8-8V16a8,8,0,0,0-16,0V32A8,8,0,0,0,256,40Z"/><path d="M256,144a8,8,0,0,0,8-8V120a8,8,0,0,0-16,0v16A8,8,0,0,0,256,144Z"/></g></svg>
